HIERARCHY
ROOT Hips
{
	OFFSET 0.00000 0.00000 0.00000
	CHANNELS 6 Xposition Yposition Zposition Zrotation Yrotation Xrotation 
	JOINT LHipJoint
	{
		OFFSET 0 0 0
		CHANNELS 3 Zrotation Yrotation Xrotation
		JOINT LeftUpLeg
		{
			OFFSET 1.46561 -1.72757 0.83774
			CHANNELS 3 Zrotation Yrotation Xrotation
			JOINT LeftLeg
			{
				OFFSET 2.48915 -6.83890 0.00000
				CHANNELS 3 Zrotation Yrotation Xrotation
				JOINT LeftFoot
				{
					OFFSET 2.60555 -7.15868 0.00000
					CHANNELS 3 Zrotation Yrotation Xrotation
					JOINT LeftToeBase
					{
						OFFSET 0.19248 -0.52884 2.26738
						CHANNELS 3 Zrotation Yrotation Xrotation
						End Site
						{
							OFFSET 0.00000 -0.00000 1.17015
						}
					}
				}
			}
		}
	}
	JOINT RHipJoint
	{
		OFFSET 0 0 0
		CHANNELS 3 Zrotation Yrotation Xrotation
		JOINT RightUpLeg
		{
			OFFSET -1.46918 -1.72757 0.83774
			CHANNELS 3 Zrotation Yrotation Xrotation
			JOINT RightLeg
			{
				OFFSET -2.49034 -6.84216 0.00000
				CHANNELS 3 Zrotation Yrotation Xrotation
				JOINT RightFoot
				{
					OFFSET -2.65971 -7.30750 0.00000
					CHANNELS 3 Zrotation Yrotation Xrotation
					JOINT RightToeBase
					{
						OFFSET -0.19227 -0.52827 2.30785
						CHANNELS 3 Zrotation Yrotation Xrotation
						End Site
						{
							OFFSET -0.00000 -0.00000 1.18972
						}
					}
				}
			}
		}
	}
	JOINT LowerBack
	{
		OFFSET 0 0 0
		CHANNELS 3 Zrotation Yrotation Xrotation
		JOINT Spine
		{
			OFFSET 0.02432 2.19909 -0.28000
			CHANNELS 3 Zrotation Yrotation Xrotation
			JOINT Spine1
			{
				OFFSET 0.03714 2.21816 -0.15261
				CHANNELS 3 Zrotation Yrotation Xrotation
				JOINT Neck
				{
					OFFSET 0 0 0
					CHANNELS 3 Zrotation Yrotation Xrotation
					JOINT Neck1
					{
						OFFSET -0.01896 1.56165 0.21681
						CHANNELS 3 Zrotation Yrotation Xrotation
						JOINT Head
						{
							OFFSET 0.02744 1.56009 0.06764
							CHANNELS 3 Zrotation Yrotation Xrotation
							End Site
							{
								OFFSET 0.01212 1.60574 0.00298
							}
						}
					}
				}
				JOINT LeftShoulder
				{
					OFFSET 0 0 0
					CHANNELS 3 Zrotation Yrotation Xrotation
					JOINT LeftArm
					{
						OFFSET 3.05595 1.48048 -0.60794
						CHANNELS 3 Zrotation Yrotation Xrotation
						JOINT LeftForeArm
						{
							OFFSET 5.20607 -0.00000 -0.00000
							CHANNELS 3 Zrotation Yrotation Xrotation
							JOINT LeftHand
							{
								OFFSET 3.39961 -0.00000 0.00000
								CHANNELS 3 Zrotation Yrotation Xrotation
								JOINT LeftFingerBase
								{
									OFFSET 0 0 0
									CHANNELS 3 Zrotation Yrotation Xrotation
									JOINT LeftHandIndex1
									{
										OFFSET 0.51969 -0.00000 0.00000
										CHANNELS 3 Zrotation Yrotation Xrotation
										End Site
										{
											OFFSET 0.41899 -0.00000 0.00000
										}
									}
								}
								JOINT LThumb
								{
									OFFSET 0 0 0
									CHANNELS 3 Zrotation Yrotation Xrotation
									End Site
									{
										OFFSET 0.42539 -0.00000 0.42539
									}
								}
							}
						}
					}
				}
				JOINT RightShoulder
				{
					OFFSET 0 0 0
					CHANNELS 3 Zrotation Yrotation Xrotation
					JOINT RightArm
					{
						OFFSET -2.99052 1.57608 -0.69102
						CHANNELS 3 Zrotation Yrotation Xrotation
						JOINT RightForeArm
						{
							OFFSET -5.32214 -0.00000 0.00000
							CHANNELS 3 Zrotation Yrotation Xrotation
							JOINT RightHand
							{
								OFFSET -3.51208 -0.00000 0.00000
								CHANNELS 3 Zrotation Yrotation Xrotation
								JOINT RightFingerBase
								{
									OFFSET 0 0 0
									CHANNELS 3 Zrotation Yrotation Xrotation
									JOINT RightHandIndex1
									{
										OFFSET -0.58668 -0.00000 0.00000
										CHANNELS 3 Zrotation Yrotation Xrotation
										End Site
										{
											OFFSET -0.47300 -0.00000 0.00000
										}
									}
								}
								JOINT RThumb
								{
									OFFSET 0 0 0
									CHANNELS 3 Zrotation Yrotation Xrotation
									End Site
									{
										OFFSET -0.48022 -0.00000 0.48022
									}
								}
							}
						}
					}
				}
			}
		}
	}
}
MOTION
Frames: 13
Frame Time: .0083333
0.3653 20.0683 -11.1780 -0.3597 0.4671 7.8167 0.0000 0.0000 0.0000 -15.5506 -5.8037 -27.5734 4.1002 12.2925 36.7749 0.9096 11.4800 17.6779 0.1428 2.4355 6.7110 0.0000 0.0000 0.0000 15.2658 4.9030 -30.1916 -5.4829 -13.9078 42.8692 -0.3776 -12.5551 13.1547 -1.3401 -7.3297 20.6958 -1.7336 0.4692 9.9893 2.0815 0.4905 6.1315 3.0859 0.1637 0.7432 -2.3704 -0.2339 -6.3836 0.0115 0.0706 27.1494 0.4212 -0.1931 9.6012 -0.0000 -0.0000 0.0000 -84.1561 -39.3680 41.7515 28.6933 -39.7467 -10.5640 -0.0000 0.0000 -30.9921 29.3131 -13.1787 -7.2948 -7.1250 0.0000 -0.0000 1.3459 14.9510 -0.9534 -0.0000 -0.0000 0.0000 80.8713 36.5520 32.6210 -20.3405 31.0504 -5.7059 0.0000 0.0000 21.4860 -24.0036 -19.1531 8.3122 7.1250 -0.0000 -0.0000 4.2816 -50.7477 -0.6074
0.3661 20.1278 -11.0993 -0.3818 0.3982 7.7026 0.0000 0.0000 0.0000 -15.5294 -5.8463 -27.5499 3.9238 12.0583 35.9386 0.8549 11.3017 17.1738 0.1344 2.3632 6.5106 0.0000 0.0000 0.0000 15.3095 5.0524 -30.3483 -5.3539 -13.7716 42.3300 -0.3654 -12.0847 12.8236 -1.2603 -7.1166 20.0613 -1.7335 0.4525 9.9514 2.0371 0.4683 6.1361 3.0418 0.1529 0.7705 -2.2591 -0.2040 -6.4223 -0.0126 0.1013 27.2670 0.3968 -0.1720 9.6502 -0.0000 0.0000 0.0000 -84.0987 -39.4723 41.8477 29.1004 -40.1097 -10.8253 -0.0000 0.0000 -30.9425 29.2799 -13.0529 -7.2174 -7.1250 0.0000 -0.0000 1.3354 15.0976 -0.9417 -0.0000 0.0000 0.0000 81.0920 36.7270 32.9919 -20.2951 30.9962 -5.6825 0.0000 0.0000 21.5939 -24.1103 -19.1040 8.3330 7.1250 -0.0000 -0.0000 4.1631 -50.7135 -0.5870
0.3667 20.1756 -11.0180 -0.3987 0.3434 7.6019 0.0000 0.0000 0.0000 -15.5331 -5.8464 -27.5151 3.7367 11.8016 35.0336 0.8011 11.0645 16.6492 0.1244 2.2738 6.2629 0.0000 0.0000 0.0000 15.3562 5.1730 -30.4713 -5.1950 -13.6001 41.6586 -0.3518 -11.5942 12.4680 -1.1711 -6.8690 19.3279 -1.7313 0.4394 9.8780 1.9950 0.4514 6.1441 2.9985 0.1445 0.8200 -2.1843 -0.1782 -6.4676 0.0051 0.1217 27.3852 0.3923 -0.1547 9.7010 0.0000 0.0000 0.0000 -84.0496 -39.5542 42.0015 29.4787 -40.4424 -11.0699 -0.0000 0.0000 -30.7579 29.3389 -12.9246 -7.1654 -7.1250 0.0000 -0.0000 1.3880 15.2345 -0.9748 0.0000 0.0000 0.0000 81.3027 36.8513 33.2873 -20.2398 30.9301 -5.6541 0.0000 0.0000 21.7167 -24.1827 -19.0711 8.3471 7.1250 -0.0000 -0.0000 4.0830 -50.6909 -0.5734
0.3675 20.2116 -10.9336 -0.4101 0.3330 7.5069 0.0000 0.0000 0.0000 -15.5611 -5.8245 -27.4557 3.5415 11.5239 34.0679 0.7536 10.7519 16.1485 0.1133 2.1703 5.9765 0.0000 0.0000 0.0000 15.4040 5.2365 -30.5497 -5.0095 -13.3945 40.8637 -0.3408 -11.0851 12.1342 -1.0806 -6.6074 18.5572 -1.7186 0.4195 9.7670 1.9585 0.4269 6.1558 2.9560 0.1321 0.8945 -2.1695 -0.1574 -6.5245 0.0872 0.1289 27.5262 0.4194 -0.1427 9.7624 -0.0000 -0.0000 0.0000 -84.0148 -39.6215 42.2154 29.8208 -40.7393 -11.2925 -0.0000 0.0000 -30.5412 29.4573 -12.8260 -7.1463 -7.1250 0.0000 -0.0000 1.4784 15.3298 -1.0353 -0.0000 -0.0000 0.0000 81.4964 36.9326 33.5038 -20.1662 30.8420 -5.6163 0.0000 0.0000 21.8598 -24.2108 -19.0395 8.3448 7.1250 -0.0000 -0.0000 4.0472 -50.6618 -0.5655
0.3682 20.2355 -10.8458 -0.4303 0.3373 7.4230 0.0000 0.0000 0.0000 -15.5955 -5.7579 -27.3852 3.3423 11.2296 33.0580 0.7130 10.3670 15.6812 0.1016 2.0553 5.6584 0.0000 0.0000 0.0000 15.4636 5.2776 -30.5845 -4.8025 -13.1579 39.9623 -0.3346 -10.5451 11.8438 -0.9869 -6.3231 17.7247 -1.6966 0.4026 9.6111 1.9324 0.4076 6.1661 2.9185 0.1222 0.9917 -2.1909 -0.1393 -6.5904 0.2055 0.1292 27.6948 0.4649 -0.1337 9.8357 -0.0000 -0.0000 0.0000 -83.9954 -39.6748 42.4844 30.1252 -41.0005 -11.4917 -0.0000 0.0000 -30.3949 29.6000 -12.7568 -7.1498 -7.1250 0.0000 -0.0000 1.5827 15.3887 -1.1064 -0.0000 -0.0000 0.0000 81.6674 36.9704 33.6540 -20.0719 30.7289 -5.5681 0.0000 0.0000 22.0122 -24.1891 -19.0137 8.3257 7.1250 -0.0000 -0.0000 4.0624 -50.6306 -0.5645
0.3689 20.2473 -10.7550 -0.4592 0.3632 7.3450 0.0000 0.0000 0.0000 -15.6348 -5.6545 -27.3027 3.1433 10.9234 32.0220 0.6811 9.9250 15.2746 0.0904 1.9394 5.3381 0.0000 0.0000 0.0000 15.5332 5.2894 -30.5762 -4.5807 -12.8955 38.9784 -0.3332 -9.9616 11.6008 -0.8900 -6.0135 16.8235 -1.6613 0.3866 9.4161 1.9147 0.3909 6.1682 2.8822 0.1138 1.1015 -2.2210 -0.1262 -6.6505 0.3306 0.1223 27.8934 0.5138 -0.1283 9.9193 -0.0000 -0.0000 0.0000 -83.9905 -39.7164 42.8134 30.3828 -41.2192 -11.6610 -0.0000 0.0000 -30.3937 29.7363 -12.7264 -7.1723 -7.1250 0.0000 -0.0000 1.6789 15.4049 -1.1731 -0.0000 -0.0000 0.0000 81.8174 36.9511 33.7376 -19.9639 30.5988 -5.5130 0.0000 0.0000 22.1774 -24.1094 -19.0134 8.2951 7.1250 -0.0000 -0.0000 4.1414 -50.6168 -0.5741
0.3696 20.2466 -10.6610 -0.4993 0.4019 7.2665 0.0000 0.0000 0.0000 -15.6747 -5.5133 -27.2078 2.9490 10.6121 30.9825 0.6582 9.4570 14.9459 0.0807 1.8329 5.0440 0.0000 0.0000 0.0000 15.6131 5.2838 -30.5219 -4.3516 -12.6141 37.9407 -0.3360 -9.3546 11.4118 -0.7971 -5.6987 15.9125 -1.6156 0.3716 9.1909 1.9056 0.3764 6.1605 2.8486 0.1067 1.2176 -2.2527 -0.1201 -6.6984 0.4541 0.1058 28.1237 0.5619 -0.1276 10.0126 -0.0000 -0.0000 0.0000 -83.9972 -39.7471 43.1819 30.5799 -41.3853 -11.7911 -0.0000 0.0000 -30.5487 29.8303 -12.7775 -7.2275 -7.1250 0.0000 -0.0000 1.7382 15.3340 -1.2173 -0.0000 -0.0000 0.0000 81.9519 36.8786 33.7736 -19.8386 30.4473 -5.4493 0.0000 0.0000 22.3507 -24.0128 -18.9904 8.2486 7.1250 -0.0000 -0.0000 4.2314 -50.5759 -0.5823
0.3703 20.2333 -10.5647 -0.5445 0.4572 7.1804 0.0000 0.0000 0.0000 -15.7208 -5.3397 -27.1020 2.7631 10.3013 29.9581 0.6451 8.9865 14.7156 0.0728 1.7409 4.7902 0.0000 0.0000 0.0000 15.6965 5.2613 -30.4253 -4.1231 -12.3224 36.8822 -0.3421 -8.7513 11.2836 -0.7143 -5.4011 15.0563 -1.5631 0.3546 8.9468 1.9022 0.3598 6.1438 2.8174 0.0988 1.3348 -2.2292 -0.1167 -6.7400 0.5145 0.0924 28.3760 0.5788 -0.1265 10.1133 -0.0000 0.0000 0.0000 -84.0110 -39.7694 43.5779 30.7266 -41.5081 -11.8883 -0.0000 0.0000 -30.8562 29.8823 -12.8314 -7.2723 -7.1250 0.0000 -0.0000 1.7684 15.2658 -1.2410 -0.0000 0.0000 0.0000 82.0758 36.7547 33.7669 -19.7050 30.2853 -5.3818 0.0000 0.0000 22.5348 -23.8801 -18.9897 8.1977 7.1250 -0.0000 -0.0000 4.3628 -50.5527 -0.5980
0.3708 20.2073 -10.4666 -0.5906 0.5168 7.0846 0.0000 0.0000 0.0000 -15.7756 -5.1368 -26.9883 2.5880 9.9962 28.9645 0.6398 8.5415 14.5750 0.0655 1.6512 4.5426 0.0000 0.0000 0.0000 15.7758 5.2391 -30.2927 -3.9018 -12.0286 35.8331 -0.3492 -8.1820 11.1983 -0.6467 -5.1446 14.3213 -1.5080 0.3406 8.6944 1.8984 0.3471 6.1154 2.7839 0.0933 1.4445 -2.1707 -0.1186 -6.7875 0.5419 0.0744 28.6638 0.5777 -0.1275 10.2290 -0.0000 -0.0000 0.0000 -84.0245 -39.7870 43.9983 30.8135 -41.5805 -11.9459 -0.0000 0.0000 -31.2598 29.8705 -12.8832 -7.2974 -7.1250 0.0000 -0.0000 1.7552 15.2086 -1.2339 -0.0000 -0.0000 0.0000 82.1970 36.5847 33.7175 -19.5632 30.1125 -5.3105 0.0000 0.0000 22.7219 -23.7435 -18.9865 8.1444 7.1250 -0.0000 -0.0000 4.4972 -50.5263 -0.6136
0.3714 20.1690 -10.3670 -0.6285 0.5745 6.9690 0.0000 0.0000 0.0000 -15.8494 -4.9049 -26.8539 2.4250 9.7002 28.0112 0.6397 8.1267 14.5010 0.0577 1.5500 4.2636 0.0000 0.0000 0.0000 15.8403 5.2214 -30.1211 -3.6938 -11.7413 34.8230 -0.3565 -7.6690 11.1506 -0.5987 -4.9532 13.7752 -1.4598 0.3288 8.4423 1.8938 0.3367 6.0785 2.7531 0.0889 1.5449 -2.1085 -0.1222 -6.8524 0.5614 0.0558 28.9969 0.5733 -0.1293 10.3656 0.0000 0.0000 0.0000 -84.0439 -39.7974 44.4259 30.8411 -41.6035 -11.9642 -0.0000 0.0000 -31.6829 29.8129 -12.8798 -7.2788 -7.1250 0.0000 -0.0000 1.7162 15.2204 -1.2060 0.0000 0.0000 0.0000 82.3132 36.3660 33.6417 -19.4214 29.9389 -5.2395 0.0000 0.0000 22.9095 -23.6283 -18.9705 8.0941 7.1250 -0.0000 -0.0000 4.6071 -50.4899 -0.6245
0.3719 20.1185 -10.2657 -0.6551 0.6185 6.8208 0.0000 0.0000 0.0000 -15.9452 -4.6382 -26.6840 2.2746 9.4160 27.1054 0.6406 7.7332 14.4490 0.0474 1.4053 3.8646 0.0000 0.0000 0.0000 15.8864 5.2161 -29.9013 -3.5029 -11.4678 33.8744 -0.3636 -7.2273 11.1335 -0.5704 -4.8366 13.4432 -1.4218 0.3236 8.2026 1.8856 0.3342 6.0381 2.7239 0.0884 1.6348 -2.0575 -0.1271 -6.9111 0.5866 0.0355 29.3414 0.5728 -0.1323 10.5063 0.0000 0.0000 0.0000 -84.0677 -39.7978 44.8548 30.8188 -41.5849 -11.9494 -0.0000 0.0000 -32.0536 29.7062 -12.7989 -7.2034 -7.1250 0.0000 -0.0000 1.6512 15.3268 -1.1565 0.0000 0.0000 0.0000 82.4281 36.1110 33.5375 -19.2774 29.7619 -5.1678 0.0000 0.0000 23.0874 -23.5383 -18.9576 8.0547 7.1250 -0.0000 -0.0000 4.6929 -50.4611 -0.6328
0.3724 20.0562 -10.1635 -0.6584 0.6591 6.6464 0.0000 0.0000 0.0000 -16.0718 -4.3610 -26.4819 2.1368 9.1454 26.2513 0.6408 7.3663 14.4014 0.0346 1.2005 3.3006 0.0000 0.0000 0.0000 15.8992 5.2192 -29.6483 -3.3322 -11.2143 33.0061 -0.3694 -6.8681 11.1312 -0.5555 -4.7744 13.2661 -1.4047 0.3213 7.9724 1.8724 0.3340 5.9932 2.7010 0.0887 1.7145 -2.0389 -0.1338 -6.9640 0.6356 0.0112 29.6894 0.5862 -0.1377 10.6483 0.0000 0.0000 0.0000 -84.1019 -39.7907 45.2780 30.7468 -41.5250 -11.9016 -0.0000 0.0000 -32.3100 29.5518 -12.6488 -7.0771 -7.1250 0.0000 -0.0000 1.5601 15.5177 -1.0862 0.0000 0.0000 0.0000 82.5405 35.8187 33.4100 -19.1437 29.5968 -5.1016 0.0000 0.0000 23.2440 -23.4751 -18.9562 8.0302 7.1250 -0.0000 -0.0000 4.7550 -50.4490 -0.6398
0.3726 19.9818 -10.0599 -0.6448 0.6953 6.4502 0.0000 0.0000 0.0000 -16.2180 -4.0808 -26.2474 2.0117 8.8903 25.4528 0.6388 7.0232 14.3389 0.0195 0.9025 2.4806 0.0000 0.0000 0.0000 15.8850 5.2365 -29.3674 -3.1831 -10.9857 32.2316 -0.3740 -6.5915 11.1372 -0.5479 -4.7421 13.1745 -1.4045 0.3219 7.7421 1.8553 0.3368 5.9461 2.6835 0.0901 1.7921 -2.0373 -0.1420 -7.0059 0.6945 -0.0153 30.0247 0.6058 -0.1446 10.7844 0.0000 0.0000 0.0000 -84.1475 -39.7603 45.6850 30.6477 -41.4422 -11.8360 -0.0000 0.0000 -32.4171 29.3466 -12.4497 -6.9111 -7.1250 0.0000 -0.0000 1.4382 15.7700 -0.9935 0.0000 0.0000 0.0000 82.6538 35.5006 33.2627 -19.0159 29.4385 -5.0387 0.0000 0.0000 23.3719 -23.4479 -18.9621 8.0223 7.1250 -0.0000 -0.0000 4.7834 -50.4507 -0.6438
